<svg xmlns="http://www.w3.org/2000/svg" viewBox="0 0 1800 720" role="img" aria-labelledby="title desc">
  <title id="title">Pelerins dans un bus</title>
  <desc id="desc">Illustration sombre et doree de pelerins assis dans un bus pendant un trajet de groupe.</desc>
  <defs>
    <linearGradient id="bg" x1="0" x2="1" y1="0" y2="1">
      <stop offset="0" stop-color="#08090a"/>
      <stop offset="0.42" stop-color="#1b1208"/>
      <stop offset="1" stop-color="#7c5318"/>
    </linearGradient>
    <linearGradient id="aisle" x1="0" x2="0" y1="0" y2="1">
      <stop offset="0" stop-color="#d5a14a" stop-opacity=".42"/>
      <stop offset=".65" stop-color="#130d06" stop-opacity=".22"/>
      <stop offset="1" stop-color="#050607" stop-opacity=".9"/>
    </linearGradient>
    <linearGradient id="seat" x1="0" x2="1">
      <stop offset="0" stop-color="#2c241b"/>
      <stop offset=".48" stop-color="#4c3824"/>
      <stop offset="1" stop-color="#14100c"/>
    </linearGradient>
    <radialGradient id="lamp" cx=".5" cy=".2" r=".75">
      <stop offset="0" stop-color="#ffe0a0" stop-opacity=".75"/>
      <stop offset=".36" stop-color="#d5a14a" stop-opacity=".24"/>
      <stop offset="1" stop-color="#d5a14a" stop-opacity="0"/>
    </radialGradient>
    <filter id="soft" x="-20%" y="-20%" width="140%" height="140%">
      <feGaussianBlur stdDeviation="8"/>
    </filter>
  </defs>
  <rect width="1800" height="720" fill="url(#bg)"/>
  <rect width="1800" height="720" fill="#050607" opacity=".28"/>
  <path d="M170 105h1460c38 0 72 30 80 68l44 218c8 38-22 74-61 74H107c-39 0-69-36-61-74l44-218c8-38 42-68 80-68Z" fill="#11100e" opacity=".72"/>
  <path d="M250 132h1300c26 0 49 20 55 46l30 146H165l30-146c6-26 29-46 55-46Z" fill="#1b1712"/>
  <g opacity=".72">
    <rect x="224" y="154" width="210" height="128" rx="16" fill="#b7832d" opacity=".35"/>
    <rect x="476" y="154" width="210" height="128" rx="16" fill="#d5a14a" opacity=".28"/>
    <rect x="1114" y="154" width="210" height="128" rx="16" fill="#d5a14a" opacity=".3"/>
    <rect x="1366" y="154" width="210" height="128" rx="16" fill="#b7832d" opacity=".38"/>
  </g>
  <ellipse cx="900" cy="130" rx="460" ry="86" fill="url(#lamp)" filter="url(#soft)"/>
  <path d="M860 114h80l64 510H796l64-510Z" fill="url(#aisle)" opacity=".5"/>
  <path d="M250 327h1300" stroke="#d5a14a" stroke-opacity=".16" stroke-width="2"/>
  <g opacity=".92">
    <g transform="translate(210 320)">
      <rect x="0" y="110" width="170" height="216" rx="26" fill="url(#seat)"/>
      <circle cx="85" cy="72" r="46" fill="#eee7d7"/>
      <path d="M35 112c17-36 83-36 100 0l18 52H17l18-52Z" fill="#f7efe1"/>
      <path d="M46 75c18 20 60 20 78 0 4 29-13 58-39 58S42 104 46 75Z" fill="#d5a14a" opacity=".18"/>
    </g>
    <g transform="translate(430 354)">
      <rect x="0" y="94" width="150" height="192" rx="24" fill="url(#seat)"/>
      <circle cx="75" cy="56" r="40" fill="#e9dfcd"/>
      <path d="M29 94c15-31 77-31 92 0l16 46H13l16-46Z" fill="#f4ead9"/>
    </g>
    <g transform="translate(1210 354)">
      <rect x="0" y="94" width="150" height="192" rx="24" fill="url(#seat)"/>
      <circle cx="75" cy="56" r="40" fill="#eadfcd"/>
      <path d="M29 94c15-31 77-31 92 0l16 46H13l16-46Z" fill="#f6eddd"/>
    </g>
    <g transform="translate(1420 320)">
      <rect x="0" y="110" width="170" height="216" rx="26" fill="url(#seat)"/>
      <circle cx="85" cy="72" r="46" fill="#efe4d1"/>
      <path d="M35 112c17-36 83-36 100 0l18 52H17l18-52Z" fill="#f7efe1"/>
    </g>
  </g>
  <g opacity=".42">
    <g transform="translate(640 368) scale(.78)">
      <rect x="0" y="94" width="150" height="192" rx="24" fill="url(#seat)"/>
      <circle cx="75" cy="56" r="40" fill="#eee4d4"/>
      <path d="M29 94c15-31 77-31 92 0l16 46H13l16-46Z" fill="#f6eddd"/>
    </g>
    <g transform="translate(1000 368) scale(.78)">
      <rect x="0" y="94" width="150" height="192" rx="24" fill="url(#seat)"/>
      <circle cx="75" cy="56" r="40" fill="#eee4d4"/>
      <path d="M29 94c15-31 77-31 92 0l16 46H13l16-46Z" fill="#f6eddd"/>
    </g>
  </g>
  <path d="M0 0h1800v720H0z" fill="url(#bg)" opacity=".18"/>
  <path d="M0 0h760v720H0z" fill="#050607" opacity=".72"/>
  <path d="M0 0h1800v720H0z" fill="none" stroke="#d5a14a" stroke-opacity=".12" stroke-width="2"/>
</svg>
